<?xml version="1.0" encoding="utf-8"?>
<!-- Generator: Adobe Illustrator 26.2.1, SVG Export Plug-In . SVG Version: 6.00 Build 0)  -->
<svg version="1.1" id="圖層_1" xmlns="http://www.w3.org/2000/svg" xmlns:xlink="http://www.w3.org/1999/xlink" x="0px" y="0px"
	 viewBox="0 0 354.7 59.3" style="enable-background:new 0 0 354.7 59.3;" xml:space="preserve">
<style type="text/css">
	.st0{fill:#C1122F;}
</style>
<g>
	<g>
		<path d="M195.9,20.7L195.9,20.7h2c0.2,0,0.4,0.1,0.5,0.2c0.2,0.2,0.3,0.4,0.3,0.6v10c0,2.3,0.5,3.7,1.6,4.9c1,1.1,2.5,2,4.7,3.1
			l1.4-2.4l-1.9-1.1c-0.9-0.5-1.6-1.2-2-2c-0.4-0.9-0.5-2-0.5-3.2v-9.2c0-0.2,0.1-0.5,0.2-0.6c0.2-0.2,0.4-0.2,0.6-0.2h3.1v-3h-3.1
			c-0.2,0-0.5-0.1-0.6-0.2c-0.2-0.2-0.2-0.4-0.2-0.6v-6.3l-3.2,0.9v5.5c0,0.2-0.2,0.5-0.3,0.6c-0.2,0.2-0.4,0.2-0.5,0.2h-2
			L195.9,20.7z"/>
		<path d="M214.3,29.4L214.3,29.4h18.2v-0.1c0-4.2-1.6-7.2-3.9-9.2c-2.2-2-5-2.9-7.2-2.9c-7.6,0-11.9,5.6-11.9,11.4
			s4.3,11.4,11.9,11.4c3.5-0.1,6.8-1.7,9.4-4.5l-2.7-1.5c-1.8,2.1-4.1,3.4-6.9,3.3c-3.9,0-7.6-2.7-7.9-6.8c-0.1-0.2,0-0.5,0.2-0.6
			C213.8,29.4,214,29.4,214.3,29.4z M213.4,25.9L213.4,25.9c0.9-3.8,3.8-6.1,7.3-6c3.5-0.1,6.6,2.1,7.6,6c0.1,0.3,0,0.5-0.2,0.8
			c-0.2,0.2-0.4,0.3-0.6,0.3h-13.3c-0.3,0-0.5-0.1-0.7-0.3C213.4,26.5,213.3,26.2,213.4,25.9z"/>
		<path d="M245.3,39.9L245.3,39.9c6.6-0.1,8.9-4,9-7c-0.1-1.6-0.5-2.7-1.3-3.4c-0.8-0.9-2.2-1.5-4.1-1.9l-5-0.9
			c-1-0.2-1.9-0.5-2.6-1c-0.7-0.5-1.1-1.3-1.1-2.3c0-1.3,0.8-2.3,1.7-2.9c0.9-0.5,2.2-0.9,3.3-0.9c1.6,0,3.7,0.5,6.1,2.3l1.7-2.1
			c-2.8-1.8-5.1-2.6-8-2.6c-5.4,0.1-8.2,3.3-8.2,6.7c0,1.5,0.4,2.5,1.4,3.4c1.1,0.9,3,1.7,6.2,2.3l2.7,0.5c1,0.2,1.9,0.5,2.6,1.1
			c0.7,0.5,1.2,1.4,1.2,2.4c0,1-0.6,2-1.6,2.7c-0.9,0.6-2.3,1.1-3.9,1.1c-2.6,0-5.3-1.3-7.2-3.1l-2.2,2.2
			C239.1,38.8,241.9,39.9,245.3,39.9z"/>
		<path d="M345.8,39.9L345.8,39.9c6.6-0.1,8.9-4,8.9-7c0-1.6-0.4-2.7-1.2-3.4c-0.9-0.9-2.2-1.5-4.1-1.9l-5-0.9c-1-0.2-1.9-0.5-2.6-1
			c-0.7-0.5-1.1-1.3-1.1-2.3c0-1.3,0.7-2.3,1.7-2.9c0.9-0.5,2.1-0.9,3.4-0.9c1.6,0,3.7,0.5,6.1,2.3l1.6-2.1
			c-2.7-1.8-5.1-2.6-7.9-2.6c-5.4,0.1-8.2,3.3-8.2,6.7c0,1.5,0.4,2.5,1.4,3.4c1.1,0.9,3,1.7,6.2,2.3l2.8,0.5c1,0.2,1.9,0.5,2.6,1.1
			c0.7,0.5,1.2,1.4,1.2,2.4c-0.1,1-0.6,2-1.6,2.7c-1,0.6-2.3,1.1-3.9,1.1c-2.6,0-5.3-1.3-7.3-3.1l-2.1,2.2
			C339.5,38.8,342.4,39.9,345.8,39.9z"/>
		<path d="M256.8,20.7L256.8,20.7h2c0.2,0,0.5,0.1,0.6,0.2c0.2,0.2,0.2,0.4,0.2,0.6v10c0,2.3,0.6,3.7,1.6,4.9c1,1.1,2.6,2,4.7,3.1
			l1.4-2.4l-2-1.1c-0.9-0.5-1.5-1.2-1.9-2c-0.5-0.9-0.6-2-0.6-3.2v-9.2c0-0.2,0.2-0.5,0.3-0.6c0.2-0.2,0.3-0.2,0.6-0.2h3.1v-3h-3.1
			c-0.2,0-0.4-0.1-0.6-0.2c-0.2-0.2-0.3-0.4-0.3-0.6v-6.3l-3.2,0.9v5.5c0,0.2-0.1,0.5-0.2,0.6c-0.2,0.2-0.4,0.2-0.6,0.2h-2V20.7z"/>
		<path d="M271.8,31.6L271.8,31.6c0,2.3,0.6,3.7,1.6,4.9c0.9,1.1,2.5,2,4.7,3.1l1.3-2.4l-1.9-1.1c-0.9-0.5-1.6-1.1-1.9-2
			c-0.4-0.9-0.6-2-0.6-3.3l0-19.9h-3.3V31.6z"/>
		<path d="M300.8,17.8L300.8,17.8v2c0,0.2-0.1,0.5-0.2,0.6c-0.2,0.2-0.4,0.2-0.6,0.2h-0.1c-0.3,0-0.6-0.2-0.7-0.4
			c-1.1-1.6-3.4-3.1-6.6-3.1c-3.5,0-6.3,1.5-8.3,3.7c-1.9,2.2-3.1,5.1-3,7.7c0,5.6,4.1,11.4,11.1,11.4c2.9,0,5.5-1.3,6.9-3.1
			c0.2-0.2,0.4-0.3,0.7-0.3h0.1c0.2,0,0.5,0.1,0.6,0.2c0.2,0.2,0.2,0.4,0.2,0.6v2h3.3V17.8H300.8z M293,36.9L293,36.9
			c-4.5,0-8.2-3.8-8.2-8.4c0-4.6,3.7-8.4,8.2-8.4c4.4,0,8,3.8,8.1,8.4C301,33.1,297.3,36.9,293,36.9z"/>
		<path d="M322.6,17.1L322.6,17.1c-3,0-5.9,1.5-6.8,3.1c-0.2,0.2-0.5,0.4-0.7,0.4H315c-0.2,0-0.4-0.1-0.6-0.2
			c-0.2-0.2-0.2-0.4-0.2-0.6v-8.8h-3.3v28.3h3.3v-2c0-0.2,0.1-0.5,0.2-0.6c0.2-0.2,0.4-0.2,0.6-0.2h0.2c0.2,0,0.5,0.2,0.7,0.4
			c0.9,1.6,3.8,3.1,6.8,3.1c5.6-0.1,11.2-4.1,11.2-11.4C333.8,21.2,328.2,17.1,322.6,17.1z M327.9,34.4L327.9,34.4
			c-1.4,1.5-3.4,2.4-5.7,2.4c-2.3,0-4.4-0.9-5.8-2.4c-1.5-1.5-2.3-3.6-2.3-6c0-2.3,0.8-4.5,2.3-6c1.4-1.5,3.4-2.4,5.8-2.4
			c2.3,0,4.3,0.9,5.7,2.4c1.5,1.5,2.3,3.6,2.3,6C330.2,30.8,329.4,33,327.9,34.4z"/>
	</g>
	<path class="st0" d="M25,10.7L25,10.7c-6,0-12.3,2.8-14.7,6.6c-0.2,0.4-0.6,0.6-1.1,0.6c-0.9,0-1.5-0.5-1.5-1.3V0H0l0,58h7.8v-4.6
		c0-0.7,0.5-1.3,1.2-1.3s1.1,0.2,1.3,0.6c2.3,3.8,8.7,6.7,14.7,6.7C36.7,59.3,49,50.8,49,35C49,19.3,36.7,10.7,25,10.7z M40.6,35
		L40.6,35c0,9.7-7.1,17.1-16.4,17.1c-9.4,0-16.4-7.4-16.4-17.1c0-9.7,7-17,16.4-17C33.5,18,40.6,25.3,40.6,35z"/>
	<path class="st0" d="M100.8,10.7L100.8,10.7c-6.5,0-11.5,3-13.3,7.8c-0.2,0.5-0.7,0.9-1.2,0.9h-0.2c-0.5,0-1.1-0.3-1.2-0.9
		c-1.8-4.8-6.9-7.8-13.3-7.8c-8,0-16.5,5.7-16.5,18.2l0,29.1h7.8l0-29c0-6.8,4.7-10.4,9.4-10.4c6.3,0,10,4.3,10,11.8l0,27.6h7.8
		l0-27.6c0-7.5,3.7-11.8,10-11.8c4.6,0,9.3,3.6,9.3,10.4v29h7.8V28.9C117.1,16.4,108.7,10.7,100.8,10.7z"/>
	<path class="st0" d="M169.9,10.7L169.9,10.7c-6.4,0-11.6,3-13.3,7.8c-0.2,0.5-0.7,0.9-1.2,0.9h-0.2c-0.5,0-1-0.3-1.2-0.9
		c-1.8-4.8-6.9-7.8-13.3-7.8c-8,0-16.5,5.7-16.5,18.2V58h7.9V29c0-6.8,4.7-10.4,9.3-10.4c6.3,0,10,4.3,10,11.8l0,27.6h7.8l0-27.6
		c0-7.5,3.7-11.8,10-11.8c4.6,0,9.3,3.6,9.3,10.4l0,29l7.8,0V28.9C186.3,16.4,177.8,10.7,169.9,10.7z"/>
</g>
</svg>
