<?xml version="1.0" encoding="UTF-8"?>
<svg id="_图层_1" data-name="图层_1" xmlns="http://www.w3.org/2000/svg" version="1.1" viewBox="0 0 640 640">
  <!-- Generator: Adobe Illustrator 29.1.0, SVG Export Plug-In . SVG Version: 2.1.0 Build 142)  -->
  <defs>
    <style>
      .st0 {
        fill: #fff;
      }
    </style>
  </defs>
  <path class="st0" d="M125.4,128c-33.9,0-61.4,27.5-61.4,61.4s0,1.7,0,2.6h0v256c0,35.3,28.7,64,64,64h384c35.3,0,64-28.7,64-64V192h0c0-.9,0-1.7,0-2.6,0-33.9-27.5-61.4-61.4-61.4H125.4ZM528,256.3v191.7c0,8.8-7.2,16-16,16H128c-8.8,0-16-7.2-16-16v-191.7l154.8,117.4c31.4,23.9,74.9,23.9,106.4,0l154.8-117.4ZM112,189.4c0-7.4,6-13.4,13.4-13.4h389.2c7.4,0,13.4,6,13.4,13.4s-2,8.2-5.3,10.7l-178.5,135.4c-14.3,10.8-34.1,10.8-48.4,0L117.3,200.1c-3.3-2.5-5.3-6.5-5.3-10.7Z"/>
</svg>